# xmcd
#
# Track frame offsets:
#	150
#	15165
#	28487
#	45337
#	56872
#	70560
#	88735
#	101015
#	110947
#	127172
#	141732
#	155302
#
# Disc length: 2251
#
# Revision: 3
# Processed by: cddbd v1.5.1PL0 Copyright (c) Steve Scherf et al.
# Submitted via: CDWizzard Release:4.31
# Normalized: r1:DSETVAR1,TDELIM( - );r2:TSWAP
#
DISCID=ac08c90c
DTITLE=Various Artist - BRANSON SATURDAY NIGHT
DYEAR=1900
DGENRE=
TTITLE0=Roy Clark - Yesterday When I Was Young
TTITLE1=Roy Clark - Come Live With Me
TTITLE2=Janie Fricke - It Ain't Easy Being Easy
TTITLE3=Janie Fricke - Where's The Fire
TTITLE4=The Gatlin Brothers - Moments To Remeber
TTITLE5=The Gatlin Brothers - Paper Doll
TTITLE6=Crystal Gayle - Don't Make My Brown Eyes Blue
TTITLE7=Crystal Gayle - Break My Mind
TTITLE8=Mickey Gilley - Stand By Me
TTITLE9=Mickey Gilley - Make It Like The First Time
TTITLE10=Mel McDaniel - Baby's Got Her Blue Jeans On
TTITLE11=Mel McDaniel - Louisiana Moon
EXTD=
EXTT0=
EXTT1=
EXTT2=
EXTT3=
EXTT4=
EXTT5=
EXTT6=
EXTT7=
EXTT8=
EXTT9=
EXTT10=
EXTT11=
PLAYORDER=
